<?xml version="1.0" encoding="UTF-8" standalone="no"?><!DOCTYPE svg PUBLIC "-//W3C//DTD SVG 1.1//EN" "http://www.w3.org/Graphics/SVG/1.1/DTD/svg11.dtd"><svg width="100%" height="100%" viewBox="0 0 2868 961" version="1.1" xmlns="http://www.w3.org/2000/svg" xmlns:xlink="http://www.w3.org/1999/xlink" xml:space="preserve" xmlns:serif="http://www.serif.com/" style="fill-rule:evenodd;clip-rule:evenodd;stroke-linejoin:round;stroke-miterlimit:2;"><path d="M2066.85,875.141c-19.613,-20.252 -51.904,-20.854 -72.259,-1.347c-49.675,48.104 -117.346,77.744 -191.885,77.744c-152.186,-0 -275.743,-123.557 -275.743,-275.744c0,-152.186 123.557,-275.743 275.743,-275.743c78.217,0 148.871,32.637 199.071,85.018c19.613,20.252 51.904,20.854 72.259,1.347c49.675,-48.104 117.346,-77.743 191.885,-77.743c152.186,-0 275.743,123.556 275.743,275.743c-0,152.186 -123.557,275.743 -275.743,275.743c-78.217,-0 -148.871,-32.637 -199.071,-85.018Zm-1393.45,-476.884l-1.487,0.029c-0,0 0.511,-0.019 1.487,-0.029l2.596,-0.051l-325.844,0c0,0 -80.123,9.299 -80.123,-91.915c0,-101.214 80.13,-97.958 80.13,-97.958l798.878,0l0,706.731l208.334,0l-0,-706.731l267.628,0l0,-208.333l-1273.87,0c-32.435,1.909 -114.164,1.788 -186.047,59.346c-53.457,42.804 -104.146,115.66 -103.383,248.145c0.745,129.249 51.87,200.291 105.766,242.045c71.283,55.225 157.091,57.705 183.673,57.001c-0.102,0.003 324.858,0.003 324.858,0.003c0,-0 40.67,0.963 40.67,63.511c-0,62.547 -39.665,67.146 -39.665,67.146l-0.124,0.005l-0.874,-0.023l-676.004,0l0,208.334l676.004,-0l-3.687,-0.065l3.67,0.037l0.017,0.028l1.949,-0.049c21.87,-0.322 103.038,-5.77 167.533,-65.602c44.556,-41.335 86.487,-109.464 81.759,-228.835c-2.104,-53.102 -14.834,-94.356 -32.478,-126.81c-7.831,-14.403 -16.629,-27.073 -25.896,-38.275c-71.285,-86.173 -181.43,-87.834 -195.47,-87.685Zm1985.8,-392.916l-0,923.043l208.333,0l0,-923.043l-208.333,-0Zm-393.278,571.582c59.326,0 107.492,48.166 107.492,107.493c-0,59.326 -48.166,107.492 -107.492,107.492c-59.327,-0 -107.493,-48.166 -107.493,-107.492c0,-59.327 48.166,-107.493 107.493,-107.493Zm-463.215,-8.621c59.327,0 107.493,48.166 107.493,107.492c-0,59.327 -48.166,107.493 -107.493,107.493c-59.326,-0 -107.492,-48.166 -107.492,-107.493c0,-59.326 48.166,-107.492 107.492,-107.492Z"/></svg>